<?xml version="1.0" encoding="utf-8"?>
<!-- Generator: Adobe Illustrator 21.0.2, SVG Export Plug-In . SVG Version: 6.00 Build 0)  -->
<svg version="1.1" id="Layer_1" xmlns="http://www.w3.org/2000/svg" xmlns:xlink="http://www.w3.org/1999/xlink" x="0px" y="0px"
	 viewBox="0 0 1083.7 1080" style="enable-background:new 0 0 1083.7 1080;" xml:space="preserve">
<style type="text/css">
	.st0{fill:none;stroke:url(#SVGID_1_);stroke-width:10;stroke-miterlimit:10;}
	.st1{fill:#FF9E49;}
	.st2{fill:#FFB049;}
	.st3{fill:#FFAD49;}
	.st4{fill:#FF9D49;}
	.st5{fill:url(#SVGID_2_);}
	.st6{fill:#FF8B48;}
	.st7{fill:#FF7948;}
	.st8{fill:url(#SVGID_3_);}
	.st9{fill:url(#SVGID_4_);}
	.st10{fill:url(#SVGID_5_);}
	.st11{fill:#FF8248;}
	.st12{fill:#FF8748;}
	.st13{fill:#FF9449;}
	.st14{fill:url(#SVGID_6_);}
	.st15{fill:url(#SVGID_7_);}
	.st16{fill:url(#SVGID_8_);}
	.st17{fill:#FF6647;}
	.st18{fill:#FE6447;}
	.st19{fill:#FF8148;}
	.st20{fill:url(#SVGID_9_);}
	.st21{fill:none;}
	.st22{font-family:'Montserrat-Regular';}
	.st23{font-size:239.0764px;}
</style>
<linearGradient id="SVGID_1_" gradientUnits="userSpaceOnUse" x1="12.6404" y1="539.9686" x2="1067.1683" y2="539.9686">
	<stop  offset="0" style="stop-color:#FF9E49"/>
	<stop  offset="1" style="stop-color:#FF8B48"/>
</linearGradient>
<circle class="st0" cx="539.9" cy="540" r="522.3"/>
<rect x="331.9" y="367.4" transform="matrix(0.9097 0.4153 -0.4153 0.9097 192.4098 -130.4442)" class="st1" width="128.3" height="19.4"/>
<rect x="210.9" y="498.6" transform="matrix(0.9097 0.4153 -0.4153 0.9097 235.2467 -65.0151)" class="st2" width="112.4" height="19.4"/>
<rect x="261.2" y="604.5" transform="matrix(-0.5362 0.8441 -0.8441 -0.5362 990.9233 683.8383)" class="st3" width="92.8" height="19.4"/>
<rect x="382.4" y="582.1" transform="matrix(0.8441 0.5362 -0.5362 0.8441 383.6768 -136.0846)" class="st4" width="87" height="19.4"/>
<linearGradient id="SVGID_2_" gradientUnits="userSpaceOnUse" x1="490.721" y1="611.049" x2="632.9432" y2="611.049">
	<stop  offset="0" style="stop-color:#FF9D49"/>
	<stop  offset="1" style="stop-color:#FF8A48"/>
</linearGradient>
<polygon class="st5" points="490.7,622.4 627.3,581.2 632.9,599.7 496.3,640.9 "/>
<rect x="475.4" y="485.2" transform="matrix(0.7665 0.6422 -0.6422 0.7665 452.3179 -254.5424)" class="st6" width="201.8" height="19.4"/>
<rect x="672.7" y="623.4" transform="matrix(-0.7071 -0.7071 0.7071 -0.7071 777.975 1588.458)" class="st7" width="90.5" height="19.4"/>
<rect x="363.6" y="470.5" transform="matrix(0.687 -0.7267 0.7267 0.687 -217.8849 453.74)" class="st4" width="108.3" height="18.6"/>
<linearGradient id="SVGID_3_" gradientUnits="userSpaceOnUse" x1="672.8127" y1="423.8018" x2="796.1107" y2="423.8018">
	<stop  offset="0" style="stop-color:#FF8148"/>
	<stop  offset="1" style="stop-color:#FF8148"/>
</linearGradient>
<polygon class="st8" points="785.7,467.8 672.8,396.1 683.2,379.8 796.1,451.5 "/>
<linearGradient id="SVGID_4_" gradientUnits="userSpaceOnUse" x1="782.1644" y1="408.9307" x2="886.6758" y2="408.9307" gradientTransform="matrix(0.9608 3.518487e-02 3.518487e-02 0.9685 4.2096 -3.7745)">
	<stop  offset="0" style="stop-color:#FF8148"/>
	<stop  offset="1" style="stop-color:#FE6447"/>
</linearGradient>
<polygon class="st9" points="869.3,390.7 784.2,467 771.3,452.5 856.3,376.2 "/>
<linearGradient id="SVGID_5_" gradientUnits="userSpaceOnUse" x1="771.5137" y1="510.3415" x2="881.1792" y2="510.3415">
	<stop  offset="0" style="stop-color:#FF8148"/>
	<stop  offset="1" style="stop-color:#FE6447"/>
</linearGradient>
<polygon class="st10" points="865.4,581.1 771.5,450.9 787.2,439.6 881.2,569.7 "/>
<rect x="589.3" y="463.5" transform="matrix(-1.836970e-16 1 -1 -1.836970e-16 1135.064 -188.7168)" class="st11" width="145.3" height="19.4"/>
<rect x="536.3" y="321.7" transform="matrix(0.7665 0.6422 -0.6422 0.7665 352.5477 -306.9569)" class="st12" width="124.4" height="19.4"/>
<rect x="453.4" y="334.7" transform="matrix(-0.4153 0.9097 -0.9097 -0.4153 1033.7739 24.3364)" class="st13" width="111.4" height="19.4"/>
<circle class="st1" cx="311" cy="339.4" r="34.2"/>
<circle class="st2" cx="198.3" cy="477.1" r="27"/>
<linearGradient id="SVGID_6_" gradientUnits="userSpaceOnUse" x1="444.2112" y1="420.6451" x2="505.8549" y2="420.6451">
	<stop  offset="0" style="stop-color:#FF9E49"/>
	<stop  offset="1" style="stop-color:#FF8B48"/>
</linearGradient>
<circle class="st14" cx="475" cy="420.6" r="30.8"/>
<linearGradient id="SVGID_7_" gradientUnits="userSpaceOnUse" x1="444.353" y1="627.5667" x2="505.713" y2="627.5667">
	<stop  offset="0" style="stop-color:#FF9D49"/>
	<stop  offset="1" style="stop-color:#FF9D49"/>
</linearGradient>
<circle class="st15" cx="475" cy="627.6" r="30.7"/>
<linearGradient id="SVGID_8_" gradientUnits="userSpaceOnUse" x1="625.0754" y1="579.1553" x2="700.4808" y2="579.1553">
	<stop  offset="0" style="stop-color:#FF8B48"/>
	<stop  offset="1" style="stop-color:#FF7948"/>
</linearGradient>
<circle class="st16" cx="662.8" cy="579.2" r="37.7"/>
<circle class="st7" cx="760" cy="667.6" r="19.4"/>
<circle class="st17" cx="874" cy="579.2" r="13.5"/>
<circle class="st18" cx="881.5" cy="368.5" r="27"/>
<circle class="st19" cx="662.8" cy="381.7" r="27"/>
<circle class="st12" cx="539.7" cy="287.3" r="22.3"/>
<linearGradient id="SVGID_9_" gradientUnits="userSpaceOnUse" x1="308.158" y1="541.4526" x2="401.6792" y2="541.4526">
	<stop  offset="0" style="stop-color:#FFAD49"/>
	<stop  offset="1" style="stop-color:#FF9D49"/>
</linearGradient>
<circle class="st20" cx="354.9" cy="541.5" r="46.8"/>
<circle class="st3" cx="272.6" cy="662.7" r="20.4"/>
<rect x="233.7" y="645.5" class="st21" width="586.5" height="181.4"/>
<text transform="matrix(1 0 0 1 233.729 822.9004)" class="st22 st23">WSC</text>
</svg>
