<?xml version="1.0" encoding="utf-8"?>
<!-- Generator: Adobe Illustrator 21.0.2, SVG Export Plug-In . SVG Version: 6.00 Build 0)  -->
<svg version="1.1" id="Layer_1" xmlns="http://www.w3.org/2000/svg" xmlns:xlink="http://www.w3.org/1999/xlink" x="0px" y="0px"
	 viewBox="0 0 1309.2 768.1" style="enable-background:new 0 0 1309.2 768.1;" xml:space="preserve">
<style type="text/css">
	.st0{fill:#FF9E49;}
	.st1{fill:#FFB049;}
	.st2{fill:#FFAD49;}
	.st3{fill:#FF9D49;}
	.st4{fill:url(#SVGID_1_);}
	.st5{fill:#FF8B48;}
	.st6{fill:#FF7948;}
	.st7{fill:url(#SVGID_2_);}
	.st8{fill:url(#SVGID_3_);}
	.st9{fill:url(#SVGID_4_);}
	.st10{fill:#FF8248;}
	.st11{fill:#FF8748;}
	.st12{fill:#FF9449;}
	.st13{fill:url(#SVGID_5_);}
	.st14{fill:url(#SVGID_6_);}
	.st15{fill:url(#SVGID_7_);}
	.st16{fill:#FF6647;}
	.st17{fill:#FE6447;}
	.st18{fill:#FF8148;}
	.st19{fill:url(#SVGID_8_);}
	.st20{fill:url(#SVGID_9_);}
	.st21{fill:none;}
	.st22{font-family:'Montserrat-Bold';}
	.st23{font-size:243.7609px;}
	.st24{fill:#FE6346;}
	.st25{font-family:'Montserrat-Regular';}
	.st26{font-size:126.7557px;}
	.st27{display:none;fill:url(#SVGID_10_);}
</style>
<image style="display:none;overflow:visible;" width="200" height="200" xlink:href="Logo1.png"  transform="matrix(0.75 0 0 0.75 593 309.2193)">
</image>
<rect x="543.5" y="129.1" transform="matrix(0.9097 0.4153 -0.4153 0.9097 113.282 -241.7549)" class="st0" width="137.8" height="20.8"/>
<rect x="413.6" y="270" transform="matrix(0.9097 0.4153 -0.4153 0.9097 159.2825 -171.4937)" class="st1" width="120.7" height="20.8"/>
<rect x="467.6" y="383.7" transform="matrix(-0.5362 0.8441 -0.8441 -0.5362 1127.4484 168.6958)" class="st2" width="99.6" height="20.8"/>
<rect x="597.7" y="359.7" transform="matrix(0.8441 0.5362 -0.5362 0.8441 298.8697 -287.8131)" class="st3" width="93.4" height="20.8"/>
<linearGradient id="SVGID_1_" gradientUnits="userSpaceOnUse" x1="714.0458" y1="390.7572" x2="866.7715" y2="390.7572">
	<stop  offset="0" style="stop-color:#FF9D49"/>
	<stop  offset="1" style="stop-color:#FF8A48"/>
</linearGradient>
<polygon class="st4" points="714,402.9 860.8,358.7 866.8,378.6 720.1,422.8 "/>
<rect x="697.6" y="255.6" transform="matrix(0.7665 0.6422 -0.6422 0.7665 358.9487 -455.4474)" class="st5" width="216.7" height="20.8"/>
<rect x="909.5" y="404" transform="matrix(-0.7071 -0.7071 0.7071 -0.7071 1342.4824 1384.9589)" class="st6" width="97.2" height="20.8"/>
<rect x="577.5" y="239.8" transform="matrix(0.687 -0.7267 0.7267 0.687 17.4506 540.1193)" class="st3" width="116.3" height="19.9"/>
<linearGradient id="SVGID_2_" gradientUnits="userSpaceOnUse" x1="909.5855" y1="189.6814" x2="1041.9894" y2="189.6814">
	<stop  offset="0" style="stop-color:#FF8148"/>
	<stop  offset="1" style="stop-color:#FF8148"/>
</linearGradient>
<polygon class="st7" points="1030.8,237 909.6,160 920.8,142.4 1042,219.4 "/>
<linearGradient id="SVGID_3_" gradientUnits="userSpaceOnUse" x1="1034.005" y1="167.4426" x2="1146.235" y2="167.4426" gradientTransform="matrix(0.9608 3.518487e-02 3.518487e-02 0.9685 14.7035 -13.1838)">
	<stop  offset="0" style="stop-color:#FF8148"/>
	<stop  offset="1" style="stop-color:#FE6447"/>
</linearGradient>
<polygon class="st8" points="1120.6,154.1 1029.2,236 1015.3,220.5 1106.7,138.6 "/>
<linearGradient id="SVGID_4_" gradientUnits="userSpaceOnUse" x1="1015.5759" y1="282.6122" x2="1133.3405" y2="282.6122">
	<stop  offset="0" style="stop-color:#FF8148"/>
	<stop  offset="1" style="stop-color:#FE6447"/>
</linearGradient>
<polygon class="st9" points="1116.4,358.6 1015.6,218.8 1032.5,206.6 1133.3,346.4 "/>
<rect x="819.9" y="232.3" transform="matrix(-1.836970e-16 1 -1 -1.836970e-16 1140.5558 -655.1572)" class="st10" width="156" height="20.8"/>
<rect x="768.6" y="82.1" transform="matrix(0.7665 0.6422 -0.6422 0.7665 253.7136 -512.8348)" class="st11" width="127.2" height="20.8"/>
<rect x="676.3" y="97.7" transform="matrix(-0.4153 0.9097 -0.9097 -0.4153 1134.4493 -512.8488)" class="st12" width="111.4" height="20.8"/>
<circle class="st0" cx="521" cy="99" r="36.7"/>
<circle class="st1" cx="400" cy="246.9" r="29"/>
<linearGradient id="SVGID_5_" gradientUnits="userSpaceOnUse" x1="664.1011" y1="186.2915" x2="730.2974" y2="186.2915">
	<stop  offset="0" style="stop-color:#FF9E49"/>
	<stop  offset="1" style="stop-color:#FF8B48"/>
</linearGradient>
<circle class="st13" cx="697.2" cy="186.3" r="33.1"/>
<linearGradient id="SVGID_6_" gradientUnits="userSpaceOnUse" x1="664.2534" y1="408.4948" x2="730.145" y2="408.4948">
	<stop  offset="0" style="stop-color:#FF9D49"/>
	<stop  offset="1" style="stop-color:#FF9D49"/>
</linearGradient>
<circle class="st14" cx="697.2" cy="408.5" r="32.9"/>
<linearGradient id="SVGID_7_" gradientUnits="userSpaceOnUse" x1="858.3227" y1="356.5081" x2="939.297" y2="356.5081">
	<stop  offset="0" style="stop-color:#FF8B48"/>
	<stop  offset="1" style="stop-color:#FF7948"/>
</linearGradient>
<circle class="st15" cx="898.8" cy="356.5" r="40.5"/>
<circle class="st6" cx="1003.2" cy="451.4" r="20.8"/>
<circle class="st16" cx="1125.6" cy="356.5" r="14.5"/>
<circle class="st17" cx="1133.7" cy="130.3" r="29"/>
<circle class="st18" cx="898.8" cy="144.5" r="29"/>
<linearGradient id="SVGID_8_" gradientUnits="userSpaceOnUse" x1="742.714" y1="43.1454" x2="790.6028" y2="43.1454">
	<stop  offset="0" style="stop-color:#FF9449"/>
	<stop  offset="1" style="stop-color:#FF8B48"/>
</linearGradient>
<circle class="st19" cx="766.7" cy="43.1" r="23.9"/>
<linearGradient id="SVGID_9_" gradientUnits="userSpaceOnUse" x1="517.9999" y1="316.021" x2="618.428" y2="316.021">
	<stop  offset="0" style="stop-color:#FFAD49"/>
	<stop  offset="1" style="stop-color:#FF9D49"/>
</linearGradient>
<circle class="st20" cx="568.2" cy="316" r="50.2"/>
<circle class="st2" cx="479.9" cy="446.2" r="21.9"/>
<rect x="11.2" y="436.4" class="st21" width="1314.8" height="190.2"/>
<text transform="matrix(1 0 0 1 11.2402 617.316)" class="st22 st23">WeSharish</text>
<rect x="1016.3" y="640.2" class="st21" width="292.9" height="109.7"/>
<text transform="matrix(1 0 0 1 1016.2981 734.2731)" class="st24 st25 st26">Coin</text>
<linearGradient id="SVGID_10_" gradientUnits="userSpaceOnUse" x1="116" y1="632.2193" x2="457.92" y2="632.2193">
	<stop  offset="0" style="stop-color:#FF9449"/>
	<stop  offset="1" style="stop-color:#FE6447"/>
</linearGradient>
<ellipse class="st27" cx="287" cy="632.2" rx="171" ry="85"/>
</svg>
